name ./resultDataOpenSim/trcMotMarkerGrf/sub10/grf-01-07.mot
datacolumns 19
datarows 12
range 0.46400000 0.50800000
endheader

                time	     ground_force_vx	     ground_force_vy	     ground_force_vz	     ground_force_px	     ground_force_py	     ground_force_pz	   l_ground_force_vx	   l_ground_force_vy	   l_ground_force_vz	   l_ground_force_px	   l_ground_force_py	   l_ground_force_pz	     ground_torque_x	     ground_torque_y	     ground_torque_z	   l_ground_torque_x	   l_ground_torque_y	   l_ground_torque_z	
          0.46400000	         34.83209400	        447.97332537	        -31.40928328	         -0.78648528	          0.00000000	          0.06652364	          0.00000000	          0.00000000	          0.00000000	          0.00000000	          0.00000000	          0.00000000	          0.00000000	          2.24246224	          0.00000000	          0.00000000	          0.00000000	          0.00000000	
          0.46800000	         37.22868595	        458.50043674	        -31.75481701	         -0.78583861	          0.00000000	          0.06637351	          0.00000000	          0.00000000	          0.00000000	          0.00000000	          0.00000000	          0.00000000	          0.00000000	          2.45354861	          0.00000000	          0.00000000	          0.00000000	          0.00000000	
          0.47200000	         39.50911722	        468.96152020	        -32.18094559	         -0.78505062	          0.00000000	          0.06624195	          0.00000000	          0.00000000	          0.00000000	          0.00000000	          0.00000000	          0.00000000	          0.00000000	          2.66574608	          0.00000000	          0.00000000	          0.00000000	          0.00000000	
          0.47600000	         41.59700040	        479.18986634	        -32.63843240	         -0.78409946	          0.00000000	          0.06612846	          0.00000000	          0.00000000	          0.00000000	          0.00000000	          0.00000000	          0.00000000	          0.00000000	          2.87991204	          0.00000000	          0.00000000	          0.00000000	          0.00000000	
          0.48000000	         43.48133037	        489.08003841	        -33.09981036	         -0.78298360	          0.00000000	          0.06603191	          0.00000000	          0.00000000	          0.00000000	          0.00000000	          0.00000000	          0.00000000	          0.00000000	          3.09491428	          0.00000000	          0.00000000	          0.00000000	          0.00000000	
          0.48400000	         45.21925212	        498.59417974	        -33.56819492	         -0.78171474	          0.00000000	          0.06595891	          0.00000000	          0.00000000	          0.00000000	          0.00000000	          0.00000000	          0.00000000	          0.00000000	          3.30718130	          0.00000000	          0.00000000	          0.00000000	          0.00000000	
          0.48800000	         46.91847531	        507.75665472	        -34.07699090	         -0.78030296	          0.00000000	          0.06591914	          0.00000000	          0.00000000	          0.00000000	          0.00000000	          0.00000000	          0.00000000	          0.00000000	          3.51061412	          0.00000000	          0.00000000	          0.00000000	          0.00000000	
          0.49200000	         48.70754535	        516.64014151	        -34.68400560	         -0.77875468	          0.00000000	          0.06592081	          0.00000000	          0.00000000	          0.00000000	          0.00000000	          0.00000000	          0.00000000	          0.00000000	          3.69719976	          0.00000000	          0.00000000	          0.00000000	          0.00000000	
          0.49600000	         50.69945300	        525.34028109	        -35.46116066	         -0.77708506	          0.00000000	          0.06596725	          0.00000000	          0.00000000	          0.00000000	          0.00000000	          0.00000000	          0.00000000	          0.00000000	          3.85845255	          0.00000000	          0.00000000	          0.00000000	          0.00000000	
          0.50000000	         52.95592626	        533.95246694	        -36.48025413	         -0.77530531	          0.00000000	          0.06606764	          0.00000000	          0.00000000	          0.00000000	          0.00000000	          0.00000000	          0.00000000	          0.00000000	          3.98733134	          0.00000000	          0.00000000	          0.00000000	          0.00000000	
          0.50400000	         55.46595089	        542.56966300	        -37.79990601	         -0.77340651	          0.00000000	          0.06623040	          0.00000000	          0.00000000	          0.00000000	          0.00000000	          0.00000000	          0.00000000	          0.00000000	          4.07990278	          0.00000000	          0.00000000	          0.00000000	          0.00000000	
          0.50800000	         58.14909304	        551.28818377	        -39.45617216	         -0.77137861	          0.00000000	          0.06644811	          0.00000000	          0.00000000	          0.00000000	          0.00000000	          0.00000000	          0.00000000	          0.00000000	          4.13605733	          0.00000000	          0.00000000	          0.00000000	          0.00000000	
